<?xml version="1.0" encoding="utf-8"?>
<!-- Generator: Adobe Illustrator 23.0.3, SVG Export Plug-In . SVG Version: 6.00 Build 0)  -->
<svg version="1.1" xmlns="http://www.w3.org/2000/svg" xmlns:xlink="http://www.w3.org/1999/xlink" x="0px" y="0px"
	 viewBox="0 0 347.7 430.2" style="enable-background:new 0 0 347.7 430.2;" xml:space="preserve">
<style type="text/css">
	.st0{display:none;}
	.st1{fill:#485725;}
	.st2{fill:none;stroke:#485725;stroke-width:10;stroke-miterlimit:10;}
</style>
<g id="Layer_1" class="st0">
	
		<image style="display:inline;overflow:visible;" width="585" height="585" xlink:href="../Desktop/fhs.jpeg"  transform="matrix(0.6988 0 0 0.6988 -47.9121 32.163)">
	</image>
</g>
<g id="Layer_2">
	<g>
		<g>
			<path class="st1" d="M123.9,299.4c15.9,16.7,13,41.6,5.1,61.3c-9,22.5-21.5,43.8-32.5,65.4c-0.6,1.3,0.7,2.9,2.1,2.1
				c22.6-14,43.9-39.4,73-37c24.2,2,35.1,28,56.6,35.9c1.3,0.5,2.2-1.1,1.7-2.2c-8.2-16.3-16-32.9-23.2-49.7
				c-3.7-8.6-7.2-17.2-10.6-25.9c-1.6-4.1-3.2-8.2-4.7-12.4c-0.7-1.9-2.6-5.1-2.6-7.1c-1.1-1.9-0.1-3.1,3-3.6c1.1,0.7,2,1.5,2.8,2.5
				c0.4,0.4,1.3,0.6,1.8,0.2c4.5-3.4,8.9-7,13.5-10.2c1.3-0.9,2.5-1.8,4-2.3c1.4-0.6,3-0.3,4.4-0.9c2-0.8,4-2.7,5.8-4
				c9.6-6.7,19.3-13.1,29.2-19.5c0.8-0.5,1.1-2.1,0-2.6c-8.2-3.5-17.8-7.7-22.4-15.9c-3.2-5.7-2.5-12.1-1.6-18.3
				c0.9-6.3,1.9-12.5,2.8-18.7c-0.8,0.2-1.7,0.4-2.5,0.7c7.6,6.9,15.4,29.7,29.7,20.5c0.8-0.5,1-1.6,0.3-2.4c-2-2.2-4-4.4-5.9-6.7
				c-0.2,0.8-0.4,1.7-0.7,2.5c3.5-0.7,7.1-1.5,10.6-2.2c0.7-0.2,1.3-1.1,1-1.8c-0.6-1.5-1.2-3.1-1.9-4.6c-0.5,0.6-1,1.3-1.4,1.9
				c3.7,0.1,7.4,0.2,11.2,0.3c1.5,0,2-2,0.8-2.8c1-1.8,2.3-2.4,3.9-2c0.8,0.1,1.5-0.7,1.5-1.5c0-3.4-1.3-5.9-4-7.9
				c-0.1,0.9-0.2,1.8-0.4,2.7c3-0.7,5.9-1.4,8.9-2.1c0.6-0.1,1.2-0.8,1.1-1.4c-2.5-23.5-27.5-30.5-47.3-33c0.4,0.8,0.9,1.5,1.3,2.3
				c6.1-9.2,4.4-20.1,0.8-29.9c-4.7-12.6-11.7-24.4-17.7-36.3c-13.5-26.7-27-53.4-40.5-80.2c-0.6-1.2-2.4-0.8-2.7,0.4
				c-1.1,4.1-2.3,8.2-3.4,12.3c1,0,1.9,0,2.9,0c-1.8-5-4.4-9.4-8-13.3c-0.6-0.7-1.9-0.5-2.4,0.3c-14.7,28.7-38.2,51.6-53.9,79.7
				c-7.7,13.8-11.5,28.3-15.5,43.5c-2,7.4-4.2,14.9-8.3,21.4c-4.5,7.3-11.2,12.3-19,15.8c-14.9,6.7-34.1,9.9-41.4,26.5
				c-0.4,1,0,2.3,1.3,2.3c3.9-0.1,7.3-1,10.8-2.8c-0.8-0.4-1.5-0.9-2.3-1.3c-0.5,3.7-1,7.5-1.4,11.2c-0.1,0.6,0.5,1.3,1.1,1.4
				c2.6,0.6,4.9,0.7,7.6,0.3c-0.6-0.3-1.2-0.7-1.8-1c1,3.5,1.5,7,1.4,10.7c0,0.8,0.7,1.5,1.5,1.5c3,0.2,5.3-0.8,7.4-2.9
				c-0.8-0.1-1.6-0.2-2.4-0.3c1.4,2.9,2.8,5.7,4.2,8.6c0.5,1.1,2.5,0.9,2.7-0.4c-0.1,0.6,5.8,4.5,6.6,5.1c2.1,1.6,4.1,3.2,6.2,4.9
				c4.4,3.5,8.8,6.9,13.1,10.4c8.1,6.4,16.1,13.1,24,19.6c0.7,0.6,1.9,0.6,2.4-0.3c0.9-1.8,1.8-3.5,2.7-5.3
				c-0.8,0.1-1.6,0.2-2.4,0.3c2.6,2.1,5.2,4.1,7.8,6.2c0.6,0.5,1.1,0.5,1.8,0.2c3.3-1.5,3.3-5.7,0.4-7.6c-1.6-1.1-3.1,1.5-1.5,2.6
				c-0.1,0.8-0.3,1.6-0.4,2.4c0.6,0.1,1.2,0.2,1.8,0.2c-2.6-2.1-5.2-4.1-7.8-6.2c-0.7-0.6-1.9-0.6-2.4,0.3c-0.9,1.8-1.8,3.5-2.7,5.3
				c0.8-0.1,1.6-0.2,2.4-0.3c-9.8-8.1-19.5-16.1-29.5-23.9c-4.9-3.9-9.8-7.7-14.7-11.6c-2.6-2-5.9-6.3-9.7-4.9c-0.5,0.2-1,0.5-1,1
				c0,0.2-0.1,0.5-0.1,0.7c0.9-0.1,1.8-0.2,2.7-0.4c-1.4-2.9-2.8-5.7-4.2-8.6c-0.4-0.9-1.7-0.9-2.4-0.3c-1.4,1.7-3.2,2.3-5.3,2
				c0.5,0.5,1,1,1.5,1.5c0-4-0.4-7.6-1.5-11.5c-0.2-0.8-1-1.2-1.8-1c-2,0.4-4,0.3-6-0.3c0.4,0.5,0.7,1,1.1,1.4
				c0.5-3.7,1-7.5,1.4-11.2c0.2-1.2-1.4-1.7-2.3-1.3c-3,1.5-5.9,2.3-9.3,2.4c0.4,0.8,0.9,1.5,1.3,2.3c6.9-15.8,25.4-18.9,39.6-25.1
				c13.9-6.1,22.1-16.5,26.9-30.7c5.1-15.4,7.4-31.2,14.8-45.9c7-14.1,16.4-26.8,25.9-39.3c11.1-14.7,22.4-29.4,30.9-45.9
				c-0.8,0.1-1.6,0.2-2.4,0.3c3.3,3.6,5.6,7.4,7.3,11.9c0.5,1.3,2.5,1.5,2.9,0c1.1-4.1,2.3-8.2,3.4-12.3c-0.9,0.1-1.8,0.2-2.7,0.4
				c12.3,24.3,24.6,48.7,36.9,73c5.9,11.6,12,23.2,17.6,34.9c5.2,10.8,10.2,24.4,2.9,35.4c-0.7,1.1,0.3,2.1,1.3,2.3
				c17.9,2.2,42,8.4,44.3,30c0.4-0.5,0.7-1,1.1-1.4c-3,0.7-5.9,1.4-8.9,2.1c-1.4,0.3-1.3,2-0.4,2.7c1.9,1.4,2.8,3.1,2.5,5.3
				c0.5-0.5,1-1,1.5-1.5c-2.5-0.2-5.6-0.2-7,2.4c-1,2-0.3,4.1,1.5,5.2c0.3-0.9,0.5-1.9,0.8-2.8c-3.7-0.1-7.4-0.2-11.2-0.3
				c-0.9,0-1.8,1-1.4,1.9c0.6,1.5,1.2,3.1,1.9,4.6c0.3-0.6,0.7-1.2,1-1.8c-3.5,0.7-7.1,1.5-10.6,2.2c-1.2,0.2-1.4,1.7-0.7,2.5
				c2,2.2,4,4.4,5.9,6.7c0.1-0.8,0.2-1.6,0.3-2.4c-12,7.6-19.4-14-26.1-20.1c-0.7-0.7-2.3-0.5-2.5,0.7c-1.1,7.5-2.4,14.9-3.3,22.4
				c-0.7,5.4-0.7,10.8,1.8,15.8c4.6,9.4,15,14.2,24.1,18.1c0-0.9,0-1.7,0-2.6c-10.1,6.5-20.1,13.1-30,20c-3.8,2.7-8.2,3.2-12.1,5.7
				c-5.2,3.3-9.9,7.4-14.8,11.2c0.6,0.1,1.2,0.2,1.8,0.2c-3.3-3.7-12-7-11.6,1.1c0.2,4.9,3.6,10.7,5.3,15.3
				c2.2,5.9,4.5,11.8,6.9,17.6c9.1,22.3,19,44.2,29.9,65.7c0.6-0.7,1.1-1.5,1.7-2.2c-22.5-8.3-32.9-35.1-59-36.1
				c-29.3-1.1-50,23.4-72.9,37.5c0.7,0.7,1.4,1.4,2.1,2.1c6.2-12.1,12.3-24.2,18.5-36.4c5.8-11.4,11.9-22.7,16.2-34.8
				c6.8-19.6,7.4-43.1-7.8-59.1C124.7,295.9,122.6,298,123.9,299.4L123.9,299.4z"/>
		</g>
	</g>
	<g>
		<g>
			<path class="st1" d="M155.9,98.8c1.2,5.9,4.1,13.6,11.3,12.6c6.7-0.9,11.6-7.1,10.9-13.9c-0.6-5.9-5.8-13.1-12.4-12.4
				c-2.8,0.3-6,1.8-7.8,4c-2.4,2.9-1.6,6.7-1.5,10.2c0.1,1.9,3.1,1.9,3,0c-0.1-2.1-0.8-5.8,0.3-7.6c1.1-1.9,5-3.7,6.8-3.7
				c4.8,0.1,8.3,5.9,8.6,10.1c0.4,5.1-4,11.1-9.7,10.4c-4.3-0.5-5.9-7.1-6.6-10.6C158.4,96.1,155.5,96.9,155.9,98.8L155.9,98.8z"/>
		</g>
	</g>
	<g>
		<g>
			<path class="st1" d="M160.6,99.3c1.1,3.4,3.8,7.5,8,6.3c3.9-1.2,4-6,2.7-9.1c-1.4-3.2-4.8-4.6-7.5-2c-2.3,2.2-2.9,6.3-0.7,8.8
				c1,1.1,2.7,1.9,4.2,1.1c1.7-0.9,2-3.5,2.2-5.2c0.2-1.5,0-3.2-1.3-4.2c-1.4-1.1-3.3-0.4-4.3,0.9c-1.8,2.4-2.3,7.5,1.5,8.2
				c3.8,0.8,5.8-3.6,4-6.6c-2.1-3.5-7.8-1.2-6.1,2.7c0.6,1.3,2.4,2.5,3.9,1.8c1.9-1,1.3-4.4,0.8-6c-0.3-0.9-1.4-1.5-2.2-0.9
				c-2.3,1.5-3,4.2-1.7,6.6c0.3,0.6,1.1,0.8,1.7,0.7c0.3-0.1,0.6-0.1,0.9-0.2c1.9-0.5,1.1-3.4-0.8-2.9c-0.3,0.1-0.6,0.1-0.9,0.2
				c0.6,0.2,1.1,0.5,1.7,0.7c-0.5-0.9-0.2-1.9,0.6-2.5c-0.7-0.3-1.5-0.6-2.2-0.9c0.3,0.8,0.7,2.2,0.3,3.1c0.3-0.2,0.6-0.5,0.9-0.7
				c2.1-0.5,0.1,3.5-0.8,1.4c-0.2-0.4,0.1-1.2,0.2-1.7c0.1-0.6,0.4-1,0.8-1.5c0,0.2,0.1,0.4,0.1,0.5c0.2,0.6-0.1,2.3-0.4,2.9
				c-0.1,0.2-0.1,0.4-0.2,0.7c-0.5,0-0.8-0.2-0.9-0.7c-0.6-0.9-0.4-2.3,0.1-3.3c0.6-1.1,1.7-2,2.8-1c1,1,1.4,3,1.2,4.3
				c-0.3,1.7-1.6,2.4-3.2,1.6c-1.4-0.8-2-2.5-2.4-3.9C163,96.7,160.1,97.4,160.6,99.3L160.6,99.3z"/>
		</g>
	</g>
	<g>
		<g>
			<path class="st1" d="M234.4,149.7c2.3-1.4,8.3-4.5,8.1-7.9c-0.2-3.2-4.9-2.3-6.9-2.4c0.4,0.8,0.9,1.5,1.3,2.3
				c0.9-2.1,3.4-5.1,1.6-7.4c-1.3-1.6-3.1-1.4-4.5-0.2c0.9,0.4,1.7,0.7,2.6,1.1c0.4-0.7,0.8-1.3,1.2-2c0.9-0.7,0.4-2.3-0.7-2.5
				c-1.4-0.3-2.8-0.7-4.2-1c0.4,0.5,0.7,1,1.1,1.4c0.8-6.5,1.2-7.7-5.5-8.2c0.4,0.8,0.9,1.5,1.3,2.3c3.2-4.4-1.4-10.6-5.8-6.4
				c-1.4,1.3,0.7,3.4,2.1,2.1c0.4,0.9,0.7,1.8,1.1,2.7c-0.7,1,0.3,2.2,1.3,2.3c1.6,0.1,2.5-0.2,3,1.1c0.3,0.8-0.4,3.4-0.5,4.1
				c-0.1,0.6,0.5,1.3,1.1,1.4c1.4,0.3,2.8,0.7,4.2,1c-0.2-0.8-0.4-1.7-0.7-2.5c-1.5,1.2-1.9,2.2-2.1,4.1c-0.2,1.4,1.7,1.8,2.6,1.1
				c-0.6,1.3-1.2,2.6-1.8,4c-0.4,1,0.1,2.2,1.3,2.3c1.7,0.1,2.9-0.6,2.4,1.1c-0.4,1.3-4,3-5.1,3.7
				C231.3,148.1,232.8,150.7,234.4,149.7L234.4,149.7z"/>
		</g>
	</g>
	<line class="st2" x1="1.9" y1="177.1" x2="343.7" y2="177.1"/>
	<line class="st2" x1="1.9" y1="227.1" x2="343.7" y2="227.1"/>
	<line class="st2" x1="1.9" y1="277.1" x2="343.7" y2="277.1"/>
	<line class="st2" x1="1.9" y1="327.1" x2="343.7" y2="327.1"/>
	<g>
		<g>
			<path class="st1" d="M176.3,58.8c0.9-7.9,1.8-15.9,2.7-23.8c0.9-7.7,2.4-15.6,2.7-23.3c0.1-3.5-0.7-7.8-4.8-8.4
				c-2.9-0.4-6.1,1.7-6.6,4.6c-1.2,7.1,10.3,8.1,11.2,0.6c0.3-2.8-0.1-8.1-3.8-8.4c-2.6-0.2-4.2,2.4-3,4.6c0.9,1.7,3.5,0.2,2.6-1.5
				c2.2,4.4,1.4,9,0.9,13.7c-0.5,4.8-1.1,9.5-1.6,14.3c-1.1,9.2-2.1,18.4-3.2,27.7C173,60.7,176,60.7,176.3,58.8L176.3,58.8z"/>
		</g>
	</g>
	<g>
		<g>
			<path class="st1" d="M192.3,95.3c10.3-7.4,17.2-18.2,19.2-30.8c0.2-1-0.4-1.9-1.4-1.9c-1.4,0-2.9-0.1-4.3-0.1c-1.9,0-1.9,2.9,0,3
				c2,0.1,4,0.3,6,0.7c1.1,0.2,2.2-0.7,1.8-1.8c-1.2-4.1-2.5-8.2-3.7-12.3c-0.4-1.3-2.6-1.5-2.9,0c-1,4.7-2.9,8.7-6,12.4
				c-1.2,1.5,0.9,3.6,2.1,2.1c3.5-4.1,5.7-8.5,6.8-13.7c-1,0-1.9,0-2.9,0c1.2,4.1,2.5,8.2,3.7,12.3c0.6-0.6,1.2-1.2,1.8-1.8
				c-2.3-0.5-4.5-0.7-6.8-0.8c0,1,0,2,0,3c1.4,0,2.9,0.1,4.3,0.1c-0.5-0.6-1-1.3-1.4-1.9c-1.9,11.7-8.1,22-17.8,29
				C189.2,93.8,190.7,96.4,192.3,95.3L192.3,95.3z"/>
		</g>
	</g>
	<g>
		<g>
			<path class="st1" d="M175.1,59.5c-0.3,0.8-0.6,1.7-0.8,2.5c-0.2,0.7,0.3,1.7,1,1.8c0.8,0.2,1.6-0.3,1.8-1
				c0.3-0.8,0.6-1.7,0.8-2.5c0.2-0.7-0.3-1.7-1-1.8C176.1,58.3,175.3,58.7,175.1,59.5L175.1,59.5z"/>
		</g>
	</g>
	<g>
		<g>
			<path class="st1" d="M208.7,58.4c-0.7,0-1.5,0-2.2,0c-1.9,0-1.9,2.9,0,3c2.8,0.1,4.5-2.9,3.4-5.4c-0.7-1.6-3.2-0.4-2.7,1.2
				c0.5,1.6,0.2,3.2-0.7,4.6c-0.4,0.7-0.1,1.6,0.5,2.1c1.1,0.7,2.3,0.9,3.5,0.6c1.2-0.3,1.5-2.1,0.4-2.7c-1.6-0.8-3.3-1.1-5.1-0.7
				c-1.9,0.4-1.1,3.3,0.8,2.9c1-0.2,1.9,0,2.8,0.4c0.1-0.9,0.2-1.8,0.4-2.7c-0.5,0.1-0.8,0-1.2-0.3c0.2,0.7,0.4,1.4,0.5,2.1
				c1.3-2.1,1.6-4.6,1-6.9c-0.9,0.4-1.8,0.8-2.7,1.2c0.2,0.5-0.4,0.9-0.8,0.9c0,1,0,2,0,3c0.7,0,1.5,0,2.2,0
				C210.7,61.4,210.7,58.4,208.7,58.4L208.7,58.4z"/>
		</g>
	</g>
	<g>
		<g>
			<path class="st1" d="M204.2,65.3c1.8,0.3,3.7,0.7,5.5,1c0-1,0-1.9,0-2.9c-2.4,0.3-4.8,0.7-7.2,1c-1.9,0.3-1.1,3.1,0.8,2.9
				c2.4-0.3,4.8-0.7,7.2-1c1.5-0.2,1.4-2.6,0-2.9c-1.8-0.3-3.7-0.7-5.5-1C203.1,62.1,202.3,65,204.2,65.3L204.2,65.3z"/>
		</g>
	</g>
</g>
</svg>
